<svg width="60" height="60" viewBox="0 0 60 60" fill="none" xmlns="http://www.w3.org/2000/svg">
<rect width="60" height="60" rx="8" fill="#F2F4F7"/>
<g opacity="0.5">
<path fill-rule="evenodd" clip-rule="evenodd" d="M22.5 26.25C22.5 22.1079 25.8579 18.75 30 18.75C34.1421 18.75 37.5 22.1079 37.5 26.25C37.5 30.3921 34.1421 33.75 30 33.75C25.8579 33.75 22.5 30.3921 22.5 26.25Z" fill="#98A2B3"/>
<path fill-rule="evenodd" clip-rule="evenodd" d="M30 13.5C20.8873 13.5 13.5 20.8873 13.5 30C13.5 39.1127 20.8873 46.5 30 46.5C39.1127 46.5 46.5 39.1127 46.5 30C46.5 20.8873 39.1127 13.5 30 13.5ZM16.5 30C16.5 22.5442 22.5442 16.5 30 16.5C37.4558 16.5 43.5 22.5442 43.5 30C43.5 33.3317 42.2931 36.3814 40.2927 38.736C38.9185 37.0671 36.8346 36 34.5001 36H25.5001C23.1655 36 21.0816 37.0671 19.7074 38.7361C17.7069 36.3815 16.5 33.3317 16.5 30Z" fill="#98A2B3"/>
</g>
</svg>
